<svg xmlns="http://www.w3.org/2000/svg" width="36" height="23" viewBox="0 0 36 23" xmlns:xlink="http://www.w3.org/1999/xlink">
    <g fill="none" fill-rule="evenodd">
        <path fill="#FFF" d="M32.775 22.997H3.212l-.37-.001c-.103 0-.207-.002-.31-.005-.227-.006-.455-.02-.678-.059-.227-.04-.438-.107-.643-.212-.203-.102-.388-.237-.549-.397-.16-.16-.295-.345-.398-.547-.105-.206-.172-.416-.212-.642-.028-.157-.043-.316-.052-.475V2.337c.009-.16.024-.318.052-.475.04-.226.107-.437.212-.642.103-.203.238-.387.398-.547.16-.16.346-.295.549-.398.205-.104.416-.17.643-.211.223-.04.451-.054.677-.06L2.794 0h30.399c.087 0 .175.002.262.004.226.006.454.02.678.06.226.04.437.107.643.211.203.103.388.237.549.398.16.16.295.344.398.547.105.205.171.416.212.642.04.223.053.45.06.675l.004.31.001.37V20.148l-.006.31c-.006.224-.019.452-.06.675-.04.226-.106.436-.211.642-.103.202-.238.387-.398.547-.161.16-.346.295-.549.397-.206.105-.417.171-.643.212-.224.04-.452.053-.678.06l-.31.004h-.37z"/>
        <path fill="#000" d="M33.193 0c.087 0 .175.002.262.004.226.006.454.02.678.06.226.04.437.107.643.211.203.103.388.237.549.398.16.16.295.344.398.547.105.205.171.416.212.642.04.223.053.45.06.675l.004.31v17.301c0 .104-.002.207-.005.31-.006.225-.019.453-.06.676-.04.226-.106.436-.211.642-.103.202-.238.387-.398.547-.161.16-.346.295-.549.397-.206.105-.417.171-.643.212-.224.04-.452.053-.678.06l-.31.004H2.841c-.103 0-.207-.002-.31-.005-.227-.006-.455-.02-.678-.059-.227-.04-.438-.107-.643-.212-.203-.102-.388-.237-.549-.397-.16-.16-.295-.345-.398-.547-.105-.206-.172-.416-.212-.642-.028-.157-.043-.316-.052-.475V2.337c.009-.16.024-.318.052-.475.04-.226.107-.437.212-.642.103-.203.238-.387.398-.547.16-.16.346-.295.549-.398.205-.104.416-.17.643-.211.223-.04.451-.054.677-.06L2.794 0h30.399zm-.418.765H3.212l-.365.001c-.098 0-.196.002-.294.005-.173.004-.375.014-.563.047-.163.03-.3.074-.43.14-.132.067-.25.153-.354.257-.104.103-.19.222-.257.352-.067.131-.112.268-.14.43-.035.188-.044.39-.049.561l-.003.147-.001.148v17.29c0 .098.002.197.004.295.005.171.014.372.048.56.03.163.074.3.14.43.067.13.154.25.257.352.105.105.223.19.353.256.132.068.269.112.432.141.19.034.4.044.562.048l.146.003.148.001h30.292c.102 0 .2-.002.3-.004.158-.004.368-.014.56-.048.162-.029.298-.073.429-.14.131-.066.25-.152.354-.256.104-.104.19-.222.257-.353.067-.13.111-.267.14-.429.034-.187.044-.389.048-.561.003-.098.004-.196.005-.293V2.854c0-.1-.002-.198-.005-.296-.004-.173-.014-.374-.047-.56-.03-.164-.074-.3-.14-.43-.067-.13-.154-.25-.258-.354-.104-.103-.223-.19-.353-.255-.131-.067-.268-.111-.431-.14-.188-.034-.39-.044-.562-.048l-.149-.003-.147-.002h-.364zm-5.732 8.437l1.493 4.806h.028l1.493-4.806h1.29l-2.223 6.222c-.509 1.428-1.091 1.896-2.324 1.896-.096 0-.407-.011-.492-.034v-.976c.08.011.271.022.373.022.56 0 .877-.236 1.069-.846l.113-.36-2.143-5.924h1.323zM9.905 8.48c.283.022 1.099.109 1.62.879-.043.033-.967.564-.956 1.682.01 1.335 1.174 1.78 1.185 1.79-.011.033-.185.63-.609 1.248-.37.543-.75 1.075-1.36 1.086-.586.01-.782-.347-1.456-.347-.674 0-.892.336-1.446.358-.587.021-1.033-.576-1.403-1.118-.76-1.096-1.337-3.093-.554-4.439.38-.673 1.076-1.096 1.826-1.106.577-.011 1.11.38 1.457.38.348 0 .968-.456 1.696-.413zm12.934.649c1.448 0 2.393.755 2.393 1.929v4.05H24.06v-.976h-.028c-.334.638-1.07 1.038-1.867 1.038-1.176 0-1.996-.7-1.996-1.748 0-1.044.797-1.642 2.268-1.732l1.578-.096v-.451c0-.66-.436-1.022-1.21-1.022-.64 0-1.103.327-1.2.83h-1.142c.034-1.055 1.03-1.822 2.375-1.822zm-5.67-2.161c1.584 0 2.687 1.089 2.687 2.674 0 1.59-1.126 2.685-2.726 2.685h-1.753v2.781H14.11v-8.14h3.06zm6.847 5.472l-1.409.09c-.791.051-1.204.344-1.204.858 0 .496.43.818 1.103.818.86 0 1.51-.548 1.51-1.309v-.457zm-7.18-4.406h-1.46v3.232h1.454c1.103 0 1.73-.592 1.73-1.619 0-1.026-.627-1.613-1.724-1.613zM9.91 6.347c.055.523-.152 1.034-.458 1.415-.316.37-.817.664-1.319.62-.065-.5.186-1.033.47-1.36.315-.38.86-.653 1.307-.675z"/>
    </g>
</svg>