<svg  width="36" height="27" viewBox="0 0 36 27" xmlns="http://www.w3.org/2000/svg" xmlns:xlink="http://www.w3.org/1999/xlink">
    <g id="Page-1" stroke="none" stroke-width="1" fill="none" fill-rule="evenodd">
        <g id="Checkout" transform="translate(-320.000000, -1156.000000)" fill="#7AB72B">
            <g id="ic_card_green" transform="translate(320.000000, 1156.000000)">
                <g id="Group-8">
                    <path d="M31.4057063,24.2767497 L4.0075403,24.2767497 C3.26233861,24.2767497 2.54263224,23.5565698 2.54263224,22.8100611 L2.54263224,3.99737755 C2.54263224,3.25086889 3.26233861,2.53068902 4.0075403,2.53068902 L31.4116937,2.53068902 C32.1568954,2.53068902 32.8766018,3.25086889 32.8766018,3.99737755 L32.8766018,22.965835 C32.8766018,23.664668 32.2109508,24.2767497 31.4057063,24.2767497 L31.4057063,24.2767497 Z M31.4057063,26.7595083 C33.537791,26.7595083 35.3593604,25.0845325 35.3593604,22.965835 L35.3593604,3.99737755 C35.3593604,1.88004456 33.5284508,0.0479304041 31.4116937,0.0479304041 L4.0075403,0.0479304041 C1.89078322,0.0479304041 0.0598736146,1.88004456 0.0598736146,3.99737755 L0.0598736146,22.8100611 C0.0598736146,24.9273941 1.89078322,26.7595083 4.0075403,26.7595083 L31.4057063,26.7595083 L31.4057063,26.7595083 Z" id="Shape"></path>
                    <rect id="Rectangle-path" x="1.93591324" y="9.89880855" width="31.5474075" height="2.48275862"></rect>
                    <rect id="Rectangle-path" x="7.82747691" y="17.3879342" width="7.80751934" height="2.48275862"></rect>
                </g>
            </g>
        </g>
    </g>
</svg>