<svg  width="36" height="36" viewBox="0 0 36 36" xmlns="http://www.w3.org/2000/svg" xmlns:xlink="http://www.w3.org/1999/xlink">
    <g id="Page-1" stroke="none" stroke-width="1" fill="none" fill-rule="evenodd">
        <g id="Checkout" transform="translate(-320.000000, -1016.000000)" fill="#7AB72B">
            <path d="M339.2,1016 L339.2,1032.8 L356,1032.8 L356,1016 L339.2,1016 L339.2,1016 Z M353.6,1030.4 L341.6,1030.4 L341.6,1018.4 L353.6,1018.4 L353.6,1030.4 L353.6,1030.4 Z M325.2,1046.8 L331.6,1046.8 L331.6,1040.4 L325.2,1040.4 L325.2,1046.8 L325.2,1046.8 Z M320,1052 L336.8,1052 L336.8,1035.2 L320,1035.2 L320,1052 L320,1052 Z M322.4,1037.6 L334.4,1037.6 L334.4,1049.6 L322.4,1049.6 L322.4,1037.6 L322.4,1037.6 Z M345.2,1035.2 L339.2,1035.2 L339.2,1040.4 L345.2,1040.4 L345.2,1035.2 L345.2,1035.2 Z M347.6,1037.6 L350.8,1037.6 L350.8,1040.4 L347.6,1040.4 L347.6,1045.2 L344.4,1045.2 L344.4,1042 L340.8,1042 L340.8,1045.2 L342.8,1045.2 L342.8,1048.8 L339.2,1048.8 L339.2,1052 L347.6,1052 L347.6,1048.8 L352.8,1048.8 L352.8,1045.2 L350.8,1045.2 L350.8,1042 L356,1042 L356,1035.2 L347.6,1035.2 L347.6,1037.6 L347.6,1037.6 Z M320,1032.8 L336.8,1032.8 L336.8,1016 L320,1016 L320,1032.8 L320,1032.8 Z M322.4,1018.4 L334.4,1018.4 L334.4,1030.4 L322.4,1030.4 L322.4,1018.4 L322.4,1018.4 Z M356,1052 L356,1048.8 L352.8,1048.8 L352.8,1052 L356,1052 L356,1052 Z M325.2,1027.6 L331.6,1027.6 L331.6,1021.2 L325.2,1021.2 L325.2,1027.6 L325.2,1027.6 Z M350.8,1021.2 L344.4,1021.2 L344.4,1027.6 L350.8,1027.6 L350.8,1021.2 L350.8,1021.2 Z" id="ic_QR"></path>
        </g>
    </g>
</svg>