<svg  width="36" height="24" viewBox="0 0 36 24" xmlns="http://www.w3.org/2000/svg" xmlns:xlink="http://www.w3.org/1999/xlink">
    <g id="Page-1" stroke="none" stroke-width="1" fill="none" fill-rule="evenodd">
        <g id="Checkout" transform="translate(-320.000000, -1801.000000)" fill="#7AB72B">
            <g id="ic_masterpass" transform="translate(320.000000, 1801.000000)">
                <g id="Group-5">
                    <path d="M11.7268348,23.2865636 C18.2011735,23.2865636 23.4536696,18.0759218 23.4536696,11.6432818 C23.4536696,5.2106418 18.2011735,0 11.7268348,0 C5.25249614,0 0,5.2106418 0,11.6432818 C0,18.0759218 5.25249614,23.2865636 11.7268348,23.2865636 L11.7268348,23.2865636 Z M11.7268348,20.803805 C6.61925914,20.803805 2.48275862,16.700266 2.48275862,11.6432818 C2.48275862,6.58629758 6.61925914,2.48275862 11.7268348,2.48275862 C16.8344105,2.48275862 20.970911,6.58629758 20.970911,11.6432818 C20.970911,16.700266 16.8344105,20.803805 11.7268348,20.803805 L11.7268348,20.803805 Z" id="Oval-5"></path>
                    <path d="M24.0201275,23.2865636 C30.4944661,23.2865636 35.7469623,18.0759218 35.7469623,11.6432818 C35.7469623,5.2106418 30.4944661,0 24.0201275,0 C17.5457888,0 12.2932927,5.2106418 12.2932927,11.6432818 C12.2932927,18.0759218 17.5457888,23.2865636 24.0201275,23.2865636 L24.0201275,23.2865636 Z M24.0201275,20.803805 C18.9125518,20.803805 14.7760513,16.700266 14.7760513,11.6432818 C14.7760513,6.58629758 18.9125518,2.48275862 24.0201275,2.48275862 C29.1277031,2.48275862 33.2642036,6.58629758 33.2642036,11.6432818 C33.2642036,16.700266 29.1277031,20.803805 24.0201275,20.803805 L24.0201275,20.803805 Z" id="Oval-5-Copy"></path>
                </g>
            </g>
        </g>
    </g>
</svg>