<svg  width="36" height="36" viewBox="0 0 36 36" xmlns="http://www.w3.org/2000/svg" xmlns:xlink="http://www.w3.org/1999/xlink">
    <g id="Page-1" stroke="none" stroke-width="1" fill="none" fill-rule="evenodd">
        <g id="Checkout" transform="translate(-320.000000, -1273.000000)" fill="#7AB72B">
            <g id="ic_p24" transform="translate(320.000000, 1273.000000)">
                <g id="p24">
                    <path d="M17.9889818,32.9343328 C9.79124863,32.9343328 3.06528393,26.2039432 3.06528393,18 C3.06528393,9.79605684 9.79124863,3.06566717 17.9889818,3.06566717 C26.1867151,3.06566717 32.9126798,9.79605684 32.9126798,18 C32.9126798,26.2039432 26.1867151,32.9343328 17.9889818,32.9343328 L17.9889818,32.9343328 Z M17.9889818,35.4170915 C27.5582704,35.4170915 35.3954384,27.5747675 35.3954384,18 C35.3954384,8.42523251 27.5582704,0.582908546 17.9889818,0.582908546 C8.41969324,0.582908546 0.582525305,8.42523251 0.582525305,18 C0.582525305,27.5747675 8.41969324,35.4170915 17.9889818,35.4170915 L17.9889818,35.4170915 Z" id="Shape"></path>
                    <path d="M17.7262759,23.5862069 L9.71565517,23.5862069 C9.72682764,22.614202 9.96144599,21.7651071 10.4195172,21.0388966 C10.8775885,20.312686 11.5032374,19.681451 12.2964828,19.1451724 C12.6763467,18.8658607 13.0729635,18.5949323 13.4863448,18.3323793 C13.8997262,18.0698263 14.2795845,17.7877256 14.625931,17.486069 C14.9722776,17.1844123 15.2571713,16.8576224 15.4806207,16.5056897 C15.7040701,16.1537569 15.8213793,15.7487609 15.8325517,15.2906897 C15.8325517,15.0784127 15.807414,14.8521736 15.7571379,14.6119655 C15.7068618,14.3717574 15.6091042,14.1483114 15.4638621,13.9416207 C15.31862,13.73493 15.1175185,13.5617593 14.8605517,13.4221034 C14.6035849,13.2824476 14.2684159,13.2126207 13.8550345,13.2126207 C13.4751705,13.2126207 13.159553,13.2880337 12.9081724,13.4388621 C12.6567918,13.5896904 12.4556904,13.796378 12.3048621,14.058931 C12.1540337,14.3214841 12.0423107,14.6315155 11.9696897,14.9890345 C11.8970686,15.3465535 11.8551725,15.7319979 11.844,16.1453793 L9.93351724,16.1453793 C9.93351724,15.4973761 10.0201026,14.8968648 10.1932759,14.3438276 C10.3664491,13.7907903 10.6262052,13.3131744 10.9725517,12.9109655 C11.3188983,12.5087566 11.7406527,12.1931391 12.2378276,11.9641034 C12.7350025,11.7350678 13.3131691,11.6205517 13.9723448,11.6205517 C14.6873829,11.6205517 15.285101,11.7378609 15.7655172,11.9724828 C16.2459334,12.2071046 16.6341709,12.5031706 16.9302414,12.8606897 C17.2263118,13.2182087 17.4357925,13.6064462 17.5586897,14.0254138 C17.6815868,14.4443814 17.7430345,14.8437912 17.7430345,15.2236552 C17.7430345,15.6928989 17.6704145,16.1174464 17.5251724,16.4973103 C17.3799303,16.8771743 17.184415,17.2263088 16.9386207,17.5447241 C16.6928264,17.8631395 16.4135188,18.1564125 16.1006897,18.4245517 C15.7878605,18.692691 15.4638637,18.9440678 15.1286897,19.1786897 C14.7935156,19.4133115 14.4583465,19.6367576 14.1231724,19.8490345 C13.7879983,20.0613114 13.4779669,20.2735851 13.193069,20.4858621 C12.908171,20.698139 12.6595873,20.918792 12.4473103,21.1478276 C12.2350334,21.3768632 12.0897935,21.6198608 12.0115862,21.8768276 L17.7262759,21.8768276 L17.7262759,23.5862069 Z M20.2568276,19.296 L23.8096552,19.296 L23.8096552,14.1343448 L23.7761379,14.1343448 L20.2568276,19.296 Z M27.1278621,20.8042759 L25.6195862,20.8042759 L25.6195862,23.5862069 L23.8096552,23.5862069 L23.8096552,20.8042759 L18.782069,20.8042759 L18.782069,18.9105517 L23.8096552,11.8551724 L25.6195862,11.8551724 L25.6195862,19.296 L27.1278621,19.296 L27.1278621,20.8042759 Z" id="24"></path>
                </g>
            </g>
        </g>
    </g>
</svg>