<svg xmlns="http://www.w3.org/2000/svg" width="36" height="23" viewBox="0 0 36 23" xmlns:xlink="http://www.w3.org/1999/xlink">
    <g fill="none">
        <path fill="#5F6368" d="M32.681.007H3.215l-.369.001c-.103.001-.207.002-.31.005-.226.003-.451.023-.675.06-.223.038-.44.109-.641.211-.407.207-.737.537-.944.944-.102.202-.173.418-.211.641-.04.223-.054.45-.06.675-.003.103-.004.207-.005.31v17.288l.005.31c.006.225.02.452.06.674.04.226.107.437.211.642.207.407.537.737.944.944.205.105.415.171.641.212.222.04.45.053.675.059l.31.005H33.05l.31-.005c.226-.003.452-.023.675-.06.223-.038.44-.11.642-.211.407-.207.737-.537.944-.944.104-.205.17-.416.21-.642.04-.222.054-.45.06-.675.003-.102.004-.206.005-.31V2.855c0-.103-.002-.207-.005-.31-.003-.226-.023-.452-.06-.675-.037-.223-.108-.44-.21-.641-.208-.407-.538-.737-.945-.944-.202-.102-.418-.173-.641-.211-.223-.04-.45-.054-.675-.06-.103-.003-.207-.004-.31-.005h-.368"/>
        <path fill="#FFFFFE" d="M32.681.773l.363.001c.098.001.197.002.295.005.172.004.373.013.56.047.163.03.3.074.43.14.262.134.475.347.608.61.067.13.111.265.14.43.034.185.043.387.047.56.003.097.005.195.005.295l.001.361V20.14c-.001.096-.003.195-.006.292-.001.188-.017.376-.047.561-.025.15-.072.294-.14.428-.133.263-.346.476-.609.61-.13.066-.266.11-.428.14-.184.029-.37.045-.557.047-.1.003-.199.004-.3.004l-.361.001H3.209l-.359-.001c-.099 0-.198-.002-.293-.004-.188-.002-.375-.018-.56-.047-.15-.025-.295-.073-.431-.142-.13-.066-.249-.152-.352-.255-.103-.104-.19-.222-.255-.352-.068-.136-.116-.28-.14-.43-.03-.186-.046-.373-.048-.56-.003-.098-.004-.196-.005-.294V2.86c.001-.098.002-.196.005-.294.002-.188.018-.375.048-.561.029-.162.073-.298.14-.43.133-.262.346-.475.608-.608.13-.066.267-.11.43-.14.185-.03.372-.045.56-.047.099-.003.196-.004.294-.005h29.83"/>
        <g>
            <path fill="#5F6368" d="M13.079 1.614v2.777h1.708c.408 0 .744-.138 1.011-.412.274-.273.41-.6.41-.977 0-.37-.136-.692-.41-.966-.267-.282-.603-.423-1.01-.423h-1.71v.001zm0 3.754v3.221h-1.022V.636h2.708c.688 0 1.273.23 1.754.689.489.459.733 1.018.733 1.677 0 .674-.244 1.237-.733 1.688-.473.452-1.058.677-1.753.677h-1.688v.001zm5.204 1.555c0 .266.113.489.34.667.225.177.49.266.793.266.43 0 .811-.16 1.148-.478.337-.318.506-.692.506-1.121-.319-.252-.763-.377-1.332-.377-.415 0-.76.1-1.038.3-.277.2-.416.447-.416.743zm1.322-3.954c.755 0 1.35.202 1.787.605.436.404.655.958.655 1.661v3.354h-.977v-.755h-.044c-.422.622-.985.933-1.688.933-.599 0-1.1-.178-1.504-.534-.402-.355-.604-.8-.604-1.332 0-.563.212-1.01.637-1.344.426-.333.994-.5 1.704-.5.606 0 1.106.111 1.498.333v-.233c0-.356-.14-.657-.421-.905-.271-.245-.624-.377-.988-.372-.57 0-1.021.24-1.354.722l-.9-.567c.497-.71 1.229-1.066 2.199-1.066zm8.047.178l-3.408 7.841H23.19l1.265-2.743-2.242-5.098h1.11l1.62 3.91h.022l1.577-3.91h1.11z" transform="translate(4 6.5)"/>
            <path fill="#4285F4" d="M8.952 4.673c0-.321-.027-.631-.079-.929H4.567v1.76h2.466c-.102.568-.43 1.07-.912 1.389v1.143h1.472c.863-.795 1.359-1.971 1.359-3.362" transform="translate(4 6.5)"/>
            <path fill="#34A853" d="M4.566 9.139c1.233 0 2.27-.405 3.027-1.103L6.122 6.893c-.41.276-.938.438-1.556.438-1.19 0-2.201-.804-2.563-1.887H.486v1.178c.775 1.542 2.354 2.517 4.08 2.517" transform="translate(4 6.5)"/>
            <path fill="#FABB05" d="M2.003 5.444c-.19-.567-.19-1.182 0-1.749V2.518H.486C.166 3.154 0 3.857 0 4.57c0 .738.175 1.435.486 2.052l1.517-1.178z" transform="translate(4 6.5)"/>
            <path fill="#E94235" d="M4.566 1.809c.673 0 1.277.232 1.753.685v.001L7.622 1.19C6.83.453 5.798 0 4.567 0 2.84 0 1.261.974.487 2.518l1.516 1.177c.361-1.083 1.373-1.886 2.563-1.886" transform="translate(4 6.5)"/>
        </g>
    </g>
</svg>