<svg  width="36" height="36" viewBox="0 0 36 36" xmlns="http://www.w3.org/2000/svg" xmlns:xlink="http://www.w3.org/1999/xlink">
    <g id="Page-1" stroke="none" stroke-width="1" fill="none" fill-rule="evenodd">
        <g id="Checkout" transform="translate(-320.000000, -1693.000000)" fill="#7AB72B">
            <g id="ic_invoice" transform="translate(320.000000, 1693.000000)">
                <path d="M2.66009852,19.6441439 L2.66009852,32.4766162 C2.66009852,32.9060891 3.00252257,33.2512315 3.41082641,33.2512315 L32.5005036,33.2512315 C32.9024185,33.2512315 33.2512315,32.9011092 33.2512315,32.4766162 L33.2512315,19.6441439 L19.1053587,25.1794855 L18.0767188,25.5819968 L18.0767188,25.5819968 L18.0445701,25.6641546 L17.955665,25.6293656 L17.86676,25.6641546 L17.8346113,25.5819968 L16.8059713,25.1794855 L2.66009852,19.6441439 Z M35.6055509,15.9836462 L35.9590638,15.9836462 L35.91133,18.8252839 L35.91133,32.4766162 C35.91133,34.3735563 34.3682651,35.91133 32.5005036,35.91133 L3.41082641,35.91133 C1.527079,35.91133 0,34.3689378 0,32.4766162 L0,18.8252839 L0.0477337015,15.9836462 L0.305779166,15.9836462 L0.26618626,15.8846639 L1.501106,15.390696 L7.90626902,12.8286308 L7.98029557,2.64930409 C7.98029557,1.18613384 9.16855803,0 10.6295997,0 L25.2817304,0 C26.7449006,0 27.9310345,1.18826246 27.9310345,2.64930409 L27.9310345,12.7990202 L34.4102241,15.390696 L35.6451438,15.8846639 L35.6055509,15.9836462 Z M27.9310345,15.664034 L27.9310345,18.8694564 L31.981843,17.2843574 L27.9310345,15.664034 Z M25.2311229,19.9259435 L25.3754955,2.49676484 L10.7205997,2.5984019 L10.7205997,19.7941237 L10.3433344,19.7941237 L17.7753095,22.7022879 L17.955665,22.7728618 L18.1360206,22.7022879 L25.2311229,19.9259435 Z M7.86267338,18.8234303 L7.88537316,15.702003 L3.92948703,17.2843574 L7.86267338,18.8234303 Z" id="Combined-Shape"></path>
                <path d="M19.4187192,5.32019704 L16.7586207,5.32019704 L16.7586207,6.71807882 C15.2423645,7.02665025 14.0985222,8.37 14.0985222,9.97536946 C14.0985222,11.8081773 15.5908374,13.3004926 17.4236453,13.3004926 L18.7536946,13.3004926 C19.1207882,13.3004926 19.4187192,13.5984236 19.4187192,13.9655172 C19.4187192,14.3326108 19.1207882,14.6305419 18.7536946,14.6305419 L14.0985222,14.6305419 L14.0985222,17.2906404 L16.7586207,17.2906404 L16.7586207,18.6206897 L19.4187192,18.6206897 L19.4187192,17.2228079 C20.9349754,16.9142365 22.0788177,15.5708867 22.0788177,13.9655172 C22.0788177,12.1327094 20.5865025,10.6403941 18.7536946,10.6403941 L17.4236453,10.6403941 C17.0565517,10.6403941 16.7586207,10.3424631 16.7586207,9.97536946 C16.7586207,9.60827586 17.0565517,9.31034483 17.4236453,9.31034483 L22.0788177,9.31034483 L22.0788177,6.65024631 L19.4187192,6.65024631 L19.4187192,5.32019704 Z" id="Fill-567"></path>
            </g>
        </g>
    </g>
</svg>