<svg  width="36" height="32" viewBox="0 0 36 32" xmlns="http://www.w3.org/2000/svg" xmlns:xlink="http://www.w3.org/1999/xlink">
    <g id="Page-1" stroke="none" stroke-width="1" fill="none" fill-rule="evenodd">
        <g id="Checkout" transform="translate(-320.000000, -1358.000000)" fill="#7AB72B">
            <g id="ic_wallet" transform="translate(320.000000, 1358.000000)">
                <g id="wallet-copy-3">
                    <path d="M4.03448179,28.9850194 C3.17748821,28.9850194 2.48275765,28.2902888 2.48275765,27.4332953 L2.48275862,4.03448281 C2.48275862,3.17748918 3.17748918,2.48275862 4.03448276,2.48275862 L26.3793103,2.48275862 C27.2363039,2.48275862 27.9310345,3.17748918 27.9310345,4.03448276 L27.9310345,6.82758621 L27.9310345,8.06896552 L29.1724138,8.06896552 L31.9655172,8.06896552 C32.8225108,8.06896552 33.5172414,8.76369608 33.5172414,9.62068966 L33.5172404,27.4332952 C33.5172404,28.2902888 32.8225099,28.9850194 31.9655163,28.9850194 L4.03448179,28.9850194 L4.03448179,28.9850194 Z M4.03448179,31.467778 L31.9655163,31.467778 C34.1936996,31.467778 35.999999,29.6614786 35.999999,27.4332953 L36,9.62068972 C36,7.39250635 34.1937005,5.5862069 31.9655172,5.5862069 L29.1724138,5.5862069 L30.4137931,6.82758621 L30.4137931,4.03448276 C30.4137931,1.80629946 28.6074936,0 26.3793103,0 L4.03448276,0 C1.80629946,0 3.05049472e-12,1.80629946 3.05049472e-12,4.03448276 L-9.68619133e-07,27.4332952 C-9.68619134e-07,29.6614786 1.80629849,31.467778 4.03448179,31.467778 L4.03448179,31.467778 Z M25.3636354,17.7178683 C26.220629,17.7178683 26.9153595,18.4125989 26.9153595,19.2695925 C26.9153595,20.1265861 26.220629,20.8213166 25.3636354,20.8213166 C24.5066418,20.8213166 23.8119113,20.1265861 23.8119113,19.2695925 C23.8119113,18.4125989 24.5066418,17.7178683 25.3636354,17.7178683 L25.3636354,17.7178683 Z M25.3636354,15.2351097 C23.1354521,15.2351097 21.3291526,17.0414092 21.3291526,19.2695925 C21.3291526,21.4977758 23.1354521,23.3040752 25.3636354,23.3040752 C27.5918187,23.3040752 29.3981182,21.4977758 29.3981182,19.2695925 C29.3981182,17.0414092 27.5918187,15.2351097 25.3636354,15.2351097 L25.3636354,15.2351097 Z" id="wallet"></path>
                    <polygon id="Line" points="1.24137931 8.44984326 31.9655172 8.44984326 33.2068966 8.44984326 33.2068966 5.96708464 31.9655172 5.96708464 1.24137931 5.96708464 0 5.96708464 0 8.44984326"></polygon>
                </g>
            </g>
        </g>
    </g>
</svg>